<mxfile host="app.diagrams.net" agent="Mozilla/5.0 (Windows NT 10.0; Win64; x64) AppleWebKit/537.36 (KHTML, like Gecko) Chrome/128.0.0.0 Safari/537.36" version="24.7.8">
  <diagram name="第 1 页" id="iR7sykMEXgL-wX6qEod0">
    <mxGraphModel dx="1434" dy="772" grid="1" gridSize="10" guides="1" tooltips="1" connect="1" arrows="1" fold="1" page="1" pageScale="1" pageWidth="827" pageHeight="1169" math="0" shadow="0">
      <root>
        <mxCell id="0" />
        <mxCell id="1" parent="0" />
        <mxCell id="ckJmmME7uKpuHkUF_4H0-3" value="" style="edgeStyle=orthogonalEdgeStyle;rounded=0;orthogonalLoop=1;jettySize=auto;html=1;fontFamily=Helvetica;fontSize=12;fontColor=default;" edge="1" parent="1" source="ckJmmME7uKpuHkUF_4H0-5" target="ckJmmME7uKpuHkUF_4H0-2">
          <mxGeometry relative="1" as="geometry" />
        </mxCell>
        <mxCell id="ckJmmME7uKpuHkUF_4H0-1" value="控制程序" style="rounded=1;whiteSpace=wrap;html=1;fillColor=#dae8fc;strokeColor=#6c8ebf;" vertex="1" parent="1">
          <mxGeometry x="340" y="140" width="120" height="60" as="geometry" />
        </mxCell>
        <mxCell id="ckJmmME7uKpuHkUF_4H0-10" value="" style="edgeStyle=orthogonalEdgeStyle;rounded=0;orthogonalLoop=1;jettySize=auto;html=1;fontFamily=Helvetica;fontSize=12;fontColor=default;" edge="1" parent="1" source="ckJmmME7uKpuHkUF_4H0-11">
          <mxGeometry relative="1" as="geometry">
            <mxPoint x="400" y="530" as="targetPoint" />
          </mxGeometry>
        </mxCell>
        <mxCell id="ckJmmME7uKpuHkUF_4H0-2" value="PID（闭环）设定值为x真实值为定位系统x1" style="whiteSpace=wrap;html=1;fillColor=#dae8fc;strokeColor=#6c8ebf;rounded=1;" vertex="1" parent="1">
          <mxGeometry x="340" y="390" width="120" height="60" as="geometry" />
        </mxCell>
        <mxCell id="ckJmmME7uKpuHkUF_4H0-6" value="" style="edgeStyle=orthogonalEdgeStyle;rounded=0;orthogonalLoop=1;jettySize=auto;html=1;fontFamily=Helvetica;fontSize=12;fontColor=default;" edge="1" parent="1" target="ckJmmME7uKpuHkUF_4H0-5">
          <mxGeometry relative="1" as="geometry">
            <mxPoint x="220" y="310" as="sourcePoint" />
          </mxGeometry>
        </mxCell>
        <mxCell id="ckJmmME7uKpuHkUF_4H0-7" value="" style="edgeStyle=orthogonalEdgeStyle;rounded=0;orthogonalLoop=1;jettySize=auto;html=1;fontFamily=Helvetica;fontSize=12;fontColor=default;" edge="1" parent="1" source="ckJmmME7uKpuHkUF_4H0-1" target="ckJmmME7uKpuHkUF_4H0-5">
          <mxGeometry relative="1" as="geometry">
            <mxPoint x="400" y="200" as="sourcePoint" />
            <mxPoint x="400" y="440" as="targetPoint" />
          </mxGeometry>
        </mxCell>
        <mxCell id="ckJmmME7uKpuHkUF_4H0-5" value="读取定位系统" style="rounded=1;whiteSpace=wrap;html=1;strokeColor=#6c8ebf;align=center;verticalAlign=middle;fontFamily=Helvetica;fontSize=12;fontColor=default;fillColor=#dae8fc;" vertex="1" parent="1">
          <mxGeometry x="340" y="280" width="120" height="60" as="geometry" />
        </mxCell>
        <mxCell id="ckJmmME7uKpuHkUF_4H0-8" value="定位系统" style="shape=parallelogram;perimeter=parallelogramPerimeter;whiteSpace=wrap;html=1;fixedSize=1;rounded=1;strokeColor=#6c8ebf;align=center;verticalAlign=middle;fontFamily=Helvetica;fontSize=12;fontColor=default;fillColor=#dae8fc;" vertex="1" parent="1">
          <mxGeometry x="110" y="280" width="120" height="60" as="geometry" />
        </mxCell>
        <mxCell id="ckJmmME7uKpuHkUF_4H0-12" value="" style="edgeStyle=orthogonalEdgeStyle;rounded=0;orthogonalLoop=1;jettySize=auto;html=1;fontFamily=Helvetica;fontSize=12;fontColor=default;" edge="1" parent="1" source="ckJmmME7uKpuHkUF_4H0-2" target="ckJmmME7uKpuHkUF_4H0-11">
          <mxGeometry relative="1" as="geometry">
            <mxPoint x="400" y="450" as="sourcePoint" />
            <mxPoint x="400" y="530" as="targetPoint" />
          </mxGeometry>
        </mxCell>
        <mxCell id="ckJmmME7uKpuHkUF_4H0-14" value="" style="edgeStyle=orthogonalEdgeStyle;rounded=0;orthogonalLoop=1;jettySize=auto;html=1;fontFamily=Helvetica;fontSize=12;fontColor=default;" edge="1" parent="1" source="ckJmmME7uKpuHkUF_4H0-11" target="ckJmmME7uKpuHkUF_4H0-13">
          <mxGeometry relative="1" as="geometry" />
        </mxCell>
        <mxCell id="ckJmmME7uKpuHkUF_4H0-11" value="PID（闭环）设定值为y真实值为定位系统y1" style="whiteSpace=wrap;html=1;fillColor=#dae8fc;strokeColor=#6c8ebf;rounded=1;" vertex="1" parent="1">
          <mxGeometry x="340" y="500" width="120" height="60" as="geometry" />
        </mxCell>
        <mxCell id="ckJmmME7uKpuHkUF_4H0-19" value="" style="edgeStyle=orthogonalEdgeStyle;rounded=0;orthogonalLoop=1;jettySize=auto;html=1;fontFamily=Helvetica;fontSize=12;fontColor=default;" edge="1" parent="1" source="ckJmmME7uKpuHkUF_4H0-13" target="ckJmmME7uKpuHkUF_4H0-18">
          <mxGeometry relative="1" as="geometry" />
        </mxCell>
        <mxCell id="ckJmmME7uKpuHkUF_4H0-13" value="PID（闭环）设定值为yaw(云台)真实值为定位系统yaw1" style="whiteSpace=wrap;html=1;fillColor=#dae8fc;strokeColor=#6c8ebf;rounded=1;" vertex="1" parent="1">
          <mxGeometry x="340" y="640" width="120" height="60" as="geometry" />
        </mxCell>
        <mxCell id="ckJmmME7uKpuHkUF_4H0-16" style="edgeStyle=orthogonalEdgeStyle;rounded=0;orthogonalLoop=1;jettySize=auto;html=1;entryX=0;entryY=0.5;entryDx=0;entryDy=0;fontFamily=Helvetica;fontSize=12;fontColor=default;" edge="1" parent="1" source="ckJmmME7uKpuHkUF_4H0-15" target="ckJmmME7uKpuHkUF_4H0-13">
          <mxGeometry relative="1" as="geometry" />
        </mxCell>
        <mxCell id="ckJmmME7uKpuHkUF_4H0-17" value="全局变量" style="edgeLabel;html=1;align=center;verticalAlign=middle;resizable=0;points=[];rounded=1;strokeColor=#6c8ebf;fontFamily=Helvetica;fontSize=12;fontColor=default;fillColor=#dae8fc;" vertex="1" connectable="0" parent="ckJmmME7uKpuHkUF_4H0-16">
          <mxGeometry x="0.0167" relative="1" as="geometry">
            <mxPoint as="offset" />
          </mxGeometry>
        </mxCell>
        <mxCell id="ckJmmME7uKpuHkUF_4H0-15" value="ins任务" style="rounded=0;whiteSpace=wrap;html=1;strokeColor=#6c8ebf;align=center;verticalAlign=middle;fontFamily=Helvetica;fontSize=12;fontColor=default;fillColor=#dae8fc;" vertex="1" parent="1">
          <mxGeometry x="100" y="640" width="120" height="60" as="geometry" />
        </mxCell>
        <mxCell id="ckJmmME7uKpuHkUF_4H0-21" value="" style="edgeStyle=orthogonalEdgeStyle;rounded=0;orthogonalLoop=1;jettySize=auto;html=1;fontFamily=Helvetica;fontSize=12;fontColor=default;" edge="1" parent="1" source="ckJmmME7uKpuHkUF_4H0-26" target="ckJmmME7uKpuHkUF_4H0-20">
          <mxGeometry relative="1" as="geometry" />
        </mxCell>
        <mxCell id="ckJmmME7uKpuHkUF_4H0-30" value="Text" style="edgeLabel;html=1;align=center;verticalAlign=middle;resizable=0;points=[];rounded=1;strokeColor=#6c8ebf;fontFamily=Helvetica;fontSize=12;fontColor=default;fillColor=#dae8fc;" vertex="1" connectable="0" parent="ckJmmME7uKpuHkUF_4H0-21">
          <mxGeometry y="4" relative="1" as="geometry">
            <mxPoint as="offset" />
          </mxGeometry>
        </mxCell>
        <mxCell id="ckJmmME7uKpuHkUF_4H0-18" value="&lt;div&gt;PID（闭环）设定值为yaw(云台)真实值为定位系统yaw2(底盘)&lt;div&gt;&lt;br&gt;&lt;/div&gt;&lt;/div&gt;" style="whiteSpace=wrap;html=1;fillColor=#dae8fc;strokeColor=#6c8ebf;rounded=1;" vertex="1" parent="1">
          <mxGeometry x="340" y="780" width="120" height="60" as="geometry" />
        </mxCell>
        <mxCell id="ckJmmME7uKpuHkUF_4H0-23" value="" style="edgeStyle=orthogonalEdgeStyle;rounded=0;orthogonalLoop=1;jettySize=auto;html=1;fontFamily=Helvetica;fontSize=12;fontColor=default;" edge="1" parent="1" source="ckJmmME7uKpuHkUF_4H0-20" target="ckJmmME7uKpuHkUF_4H0-22">
          <mxGeometry relative="1" as="geometry" />
        </mxCell>
        <mxCell id="ckJmmME7uKpuHkUF_4H0-34" value="" style="edgeStyle=orthogonalEdgeStyle;rounded=0;orthogonalLoop=1;jettySize=auto;html=1;fontFamily=Helvetica;fontSize=12;fontColor=default;" edge="1" parent="1" source="ckJmmME7uKpuHkUF_4H0-22" target="ckJmmME7uKpuHkUF_4H0-33">
          <mxGeometry relative="1" as="geometry" />
        </mxCell>
        <mxCell id="ckJmmME7uKpuHkUF_4H0-22" value="电机转速pid闭环" style="whiteSpace=wrap;html=1;fillColor=#dae8fc;strokeColor=#6c8ebf;rounded=1;" vertex="1" parent="1">
          <mxGeometry x="340" y="1090" width="120" height="60" as="geometry" />
        </mxCell>
        <mxCell id="ckJmmME7uKpuHkUF_4H0-28" value="" style="edgeStyle=orthogonalEdgeStyle;rounded=0;orthogonalLoop=1;jettySize=auto;html=1;fontFamily=Helvetica;fontSize=12;fontColor=default;" edge="1" parent="1" source="ckJmmME7uKpuHkUF_4H0-18" target="ckJmmME7uKpuHkUF_4H0-26">
          <mxGeometry relative="1" as="geometry">
            <mxPoint x="400" y="840" as="sourcePoint" />
            <mxPoint x="400" y="920" as="targetPoint" />
          </mxGeometry>
        </mxCell>
        <mxCell id="ckJmmME7uKpuHkUF_4H0-26" value="通过上述数据算出云台电机速度" style="whiteSpace=wrap;html=1;fillColor=#dae8fc;strokeColor=#6c8ebf;rounded=1;" vertex="1" parent="1">
          <mxGeometry x="340" y="860" width="120" height="60" as="geometry" />
        </mxCell>
        <mxCell id="ckJmmME7uKpuHkUF_4H0-20" value="通过上述闭环输出解算出麦克纳姆轮各个电机转速" style="whiteSpace=wrap;html=1;fillColor=#dae8fc;strokeColor=#6c8ebf;rounded=1;" vertex="1" parent="1">
          <mxGeometry x="340" y="970" width="120" height="60" as="geometry" />
        </mxCell>
        <mxCell id="ckJmmME7uKpuHkUF_4H0-38" value="" style="edgeStyle=orthogonalEdgeStyle;rounded=0;orthogonalLoop=1;jettySize=auto;html=1;fontFamily=Helvetica;fontSize=12;fontColor=default;" edge="1" parent="1" source="ckJmmME7uKpuHkUF_4H0-33" target="ckJmmME7uKpuHkUF_4H0-37">
          <mxGeometry relative="1" as="geometry" />
        </mxCell>
        <mxCell id="ckJmmME7uKpuHkUF_4H0-33" value="CAN通信输出到电机电调" style="whiteSpace=wrap;html=1;fillColor=#dae8fc;strokeColor=#6c8ebf;rounded=1;" vertex="1" parent="1">
          <mxGeometry x="340" y="1230" width="120" height="60" as="geometry" />
        </mxCell>
        <mxCell id="ckJmmME7uKpuHkUF_4H0-37" value="PWM控制舵机" style="whiteSpace=wrap;html=1;fillColor=#dae8fc;strokeColor=#6c8ebf;rounded=1;" vertex="1" parent="1">
          <mxGeometry x="340" y="1370" width="120" height="60" as="geometry" />
        </mxCell>
      </root>
    </mxGraphModel>
  </diagram>
</mxfile>
